<?xml version="1.0" standalone="no"?><!DOCTYPE svg PUBLIC "-//W3C//DTD SVG 1.1//EN" "http://www.w3.org/Graphics/SVG/1.1/DTD/svg11.dtd"><svg t="1505715915676" class="icon" style="" viewBox="0 0 1024 1024" version="1.1" xmlns="http://www.w3.org/2000/svg" p-id="3505" xmlns:xlink="http://www.w3.org/1999/xlink" width="200" height="200"><defs><style type="text/css"></style></defs><path d="M523.41387 11.4c-187.3 0-350.7 103.4-436.6 256.1 10.5-3.3 21.6-5.3 33.4-5.3 33.5 0 65.8 15.8 96.4 46.7 19.1 6.5 39.1 12.5 60.3 17.6-3.5 16.4-6.4 34.5-8.9 51.8 41.3 72.5 23.2 123.5-11 159.8h1.4c0.6 18.1 2.3 46 4.5 68.7 13 16.8 31.7 38.9 58.4 66.2-8.3-42.6-13.7-80.6-15-134.9H493.01387v136.8c-54.3 1.1-105.5 6.2-156.4 14.9 17.2 16.9 30.6 30.7 43.6 41.8 37.1-4.7 76.6-7.6 112.8-8.4v14.6c18.1-10.3 38.8-17.4 62.4-17.4 10.5 0 22.7 1.6 33.6 4.4 40.9 2.4 81.7 7 119.5 13.8-4.9 16.5-9.9 32.2-15.8 47.2 15 13.2 27.2 26.6 36.3 40.2 10.6-24.1 20.1-50 28.1-77.7 40.1 9.7 76.3 22 107.1 36.1-31.8 39.7-70.5 73.7-114.1 100.3 0.1 1 0.3 2 0.3 2.9 1.4 33.7-12.7 61.5-30.9 84.7C898.31387 896.1 1024.01387 718.5 1024.01387 512c0-276-224.6-500.6-500.6-500.6zM288.41387 280c-40.9-10-77.6-22.6-108.5-37.1C230.01387 179.1 297.41387 129.5 375.01387 101.3c-36.4 44.9-66.2 106.2-86.6 178.7zM493.01387 483.7H306.41387c1.5-54.3 4.6-102.3 14.8-149.5 55.1 10.4 117.4 18.4 171.7 19.6v129.9z m6.4-181.1c-56.4 0-112-5-163.2-14.3C366.91387 182.6 415.01387 104.2 474.61387 77c7.1-0.7 18.3-0.6 18.3-1v226.6h6.5z m395.3-22.1c37.4 60.3 60.6 130.8 64.6 203.3h-171c-1.4-54.3-7.9-110.4-18.5-160.4 47.2-11.7 89.5-25.5 124.9-42.9zM547.31387 76c0 0.4 14.5 0.9 21.6 1.7 59.7 27.2 111 106.4 141.6 212.1-51.1 9.3-108.9 14.6-163.2 15.8V76z m174 617.2c-54.7-10.2-119.6-17.1-174-18.3V538.1h193.1c-1.5 54.3-8.3 106.7-19.1 155.1z m-174-209.5V353.9c54.3-1.2 120.3-9.3 175-19.6 10.2 47.2 16.6 95.2 18.1 149.5H547.31387z m124.5-382.4c77.6 28.1 145 77.7 195.1 141.5-30.9 14.5-67.6 27.1-108.5 37.1-20.4-72.4-50.2-133.7-86.6-178.6zM892.41387 746c-35.3-17.1-77.1-31.2-123.5-42.5 11.2-51.3 18-111.1 19.5-165.5h171c-4.2 72.5-28.2 146.9-67 208z" fill="#00A9BA" p-id="3506"></path><path d="M653.31387 814.9c-100.4-80.7-128.5-41-174.1 4.5-31.8 31.8-112.3-34.6-181.8-104.2-69.5-69.5-136-150-104.2-181.9 45.6-45.6 85.2-73.7 4.5-174.1C116.91387 258.9 63.11387 336 19.01387 380.2c-51 50.9-2.7 240.8 185 428.5 187.7 187.6 377.5 235.9 428.5 185 44.1-44.2 121.2-98 20.8-178.8z" fill="#626264" p-id="3507"></path></svg>