<?xml version="1.0" standalone="no"?><!DOCTYPE svg PUBLIC "-//W3C//DTD SVG 1.1//EN" "http://www.w3.org/Graphics/SVG/1.1/DTD/svg11.dtd"><svg t="1505715927938" class="icon" style="" viewBox="0 0 1024 1024" version="1.1" xmlns="http://www.w3.org/2000/svg" p-id="3649" xmlns:xlink="http://www.w3.org/1999/xlink" width="200" height="200"><defs><style type="text/css"></style></defs><path d="M671.8 132.1l-0.5-0.1c-9.4-2.2-18.8 3.3-21.6 12.5l-74.8 246.9c-18.4 9.3-31.2 28.1-31.2 50.1 0 31.1 25.3 56.3 56.3 56.3 5.8 0 11.3-1.1 16.5-2.8l156.2 81.2c8.6 4.5 19.2 1.7 24.4-6.4l0.2-0.4c5.3-8.1 3.5-18.9-4.1-24.9L655.8 434.8c-1.2-10.2-5.1-19.6-11.1-27.4l41-254.7c1.5-9.4-4.6-18.4-13.9-20.6z m-71.7 337.2c-15.3 0-27.8-12.5-27.8-27.8s12.5-27.8 27.8-27.8 27.8 12.5 27.8 27.8c0 15.4-12.4 27.8-27.8 27.8z" fill="#FF9623" p-id="3650"></path><path d="M600.1 17.6C366.4 17.6 176.2 207.8 176.2 441.5c0 20.2 1.5 40.1 4.3 59.6h57.6c-3.2-19.4-4.9-39.3-4.9-59.6 0-202.3 164.6-366.9 366.9-366.9 202.3 0 366.9 164.6 366.9 366.9 0 156.7-98.7 290.6-237.2 343.2v60.4c170.5-54.9 294.2-215 294.2-403.5 0-233.8-190.1-424-423.9-424z" fill="#FF9623" p-id="3651"></path><path d="M687.1 775.1c0-11.8-4.7-23.2-13.1-31.5L543.5 614.5c-8.3-8.3-19.5-12.8-31.1-12.8h-65.8V577c0-18.4-15-33.2-33.3-33.2H33.2C14.8 543.8 0 558.6 0 577v222.2h687.1v-24.1zM617.2 747.8H490.8c-2.8 0-5.1-2.3-5.1-5.1v-97.6c0-2.8 2.3-5.1 5.1-5.1h24.1c1.3 0 2.7 0.6 3.7 1.4L620.7 739c3.4 3.1 1.2 8.8-3.5 8.8zM0 891.2c0 18.3 14.9 33.2 33.2 33.2h44.5c6.4-44.1 44.4-77.9 90.1-77.9 45.7 0 83.7 33.9 90.1 77.9h180.1c6.4-44.1 44.4-77.9 90.1-77.9 45.8 0 83.8 33.9 90.2 77.9h35.5c18.3 0 33.2-14.9 33.2-33.2v-73.5H0v73.5z" fill="#626264" p-id="3652"></path><path d="M528.3 868.6c-38 0-68.9 30.8-68.9 68.8s30.9 69 68.9 69 68.8-30.9 68.8-69c0-38-30.8-68.8-68.8-68.8z m0 103.3c-19.1 0-34.5-15.4-34.5-34.5 0-18.9 15.4-34.5 34.5-34.5 18.9 0 34.3 15.5 34.3 34.5 0 19.1-15.4 34.5-34.3 34.5zM167.9 868.6c-38 0-69 30.8-69 68.8s30.9 69 69 69 68.8-30.9 68.8-69c0-38-30.8-68.8-68.8-68.8z m0 103.3c-19.1 0-34.5-15.4-34.5-34.5 0-18.9 15.4-34.5 34.5-34.5 18.9 0 34.5 15.5 34.5 34.5-0.1 19.1-15.6 34.5-34.5 34.5z" fill="#00A9BA" p-id="3653"></path></svg>