<?xml version="1.0" standalone="no"?><!DOCTYPE svg PUBLIC "-//W3C//DTD SVG 1.1//EN" "http://www.w3.org/Graphics/SVG/1.1/DTD/svg11.dtd"><svg t="1505715932711" class="icon" style="" viewBox="0 0 1025 1024" version="1.1" xmlns="http://www.w3.org/2000/svg" p-id="3795" xmlns:xlink="http://www.w3.org/1999/xlink" width="200.1953125" height="200"><defs><style type="text/css"></style></defs><path d="M1.1 565.9V659c0 23.2 18.8 42 42 42h56.3c8.1-55.8 56.2-98.7 114.1-98.7 57.9 0 105.9 42.9 114.1 98.7h382.1c8.1-55.8 56.2-98.7 114.1-98.7 58 0 106.1 42.9 114.2 98.7h45c23.2 0 42-18.8 42-42v-93.1H1.1z" fill="#626264" p-id="3796"></path><path d="M823.9 630.3c-48.2 0-87.3 39.1-87.3 87.3 0 48.1 39.1 87.2 87.3 87.2 48.1 0 87.2-39.1 87.2-87.2 0-48.2-39.1-87.3-87.2-87.3z m0 130.9c-24.1 0-43.6-19.6-43.6-43.6 0-24.1 19.5-43.6 43.6-43.6 24 0 43.6 19.5 43.6 43.6 0 24-19.6 43.6-43.6 43.6zM213.5 630.3c-48.2 0-87.2 39.1-87.2 87.3 0 48.1 39 87.2 87.2 87.2s87.2-39.1 87.2-87.2c0-48.2-39-87.3-87.2-87.3z m0 130.9c-24.1 0-43.6-19.6-43.6-43.6 0-24.1 19.5-43.6 43.6-43.6s43.6 19.5 43.6 43.6c0 24-19.5 43.6-43.6 43.6z" fill="#626264" p-id="3797"></path><path d="M1025 511.9c0-15-6-29.3-16.5-39.8L843.3 308.7c-10.5-10.4-24.7-16.3-39.4-16.3h-83.4v-31.3c0-23.3-18.8-42-42-42H43.1c-23.1 0-42 18.8-42 42v281.4h1024v-30.6zM198.4 382.4l-4.3 22.7h-48.3l-11.5 58.7h-26.2l28.2-145.3h83.3l-4.3 22.7H158l-7.8 41.1h48.2zM306.8 410l19.4 53.8H298l-18.4-54.2h-26.2L243 463.8h-26.4l28.2-145.3h51.4c7.8 0 14.9 1 20.9 3.7 12.3 5.3 19.7 16.6 19.7 31.5 0 19.9-11.3 41.3-33.1 48.5v0.4c-0.2 0.1 1.2 2.1 3.1 7.4z m153.4-68.7h-60.6l-7.4 38.1h48.9l-4.5 22.7h-48.9l-7.6 39.1h63.8l-4.3 22.7h-90.2L378 318.5h86.8l-4.6 22.8z m117.2 0h-60.6l-7.4 38.1h48.9l-4.5 22.7H505l-7.6 39.1h63.8l-4.3 22.7h-90.2l28.4-145.3h86.8l-4.5 22.7z m359.1 136.3H776.6c-3.6 0-6.6-2.9-6.6-6.6V347.6c0-3.6 2.9-6.6 6.6-6.6H807c1.7 0 3.4 0.7 4.6 1.8l129.3 123.5c4.4 4 1.4 11.3-4.4 11.3z" fill="#00A9BA" p-id="3798"></path><path d="M290.6 341.3h-23.9l-8.8 45.4h23.3c15.5 0 28.4-10.6 28.4-28.5 0-10.8-7.1-16.9-19-16.9z" fill="#00A9BA" p-id="3799"></path></svg>